<svg xmlns="http://www.w3.org/2000/svg" xmlns:xlink="http://www.w3.org/1999/xlink" id="Layer_1" x="0px" y="0px" viewBox="0 0 1300 500" style="enable-background:new 0 0 1300 500;" xml:space="preserve"><style type="text/css">	.st0{opacity:0.12;fill:#70AEA3;enable-background:new    ;}</style><path class="st0" d="M313.7,281.2c-58-62.9-82.4-128.4-69-184.7c17.3-72.1,94.4-122,211.4-136.8l0.4,4.2 C341.2-21.5,265.3,27.2,248.4,97.6c-13.2,54.7,11,118.9,67.9,180.6L313.7,281.2z"></path><path class="st0" d="M873.2,504.4c-72.4,0-151-11.8-229.2-34.7c-96.6-28.1-185.1-70.7-256.2-123l2.1-3.4 c70.6,52,158.8,94.3,255,122.3c86.9,25.3,174.5,37.1,253.2,34l0.1,4.2C890.1,504.2,881.7,504.4,873.2,504.4z"></path><path class="st0" d="M1039.2,478.2l-1.2-4c64.7-24.1,105.2-62.9,117.1-112.2c15.1-62.8-17.6-135.5-92.3-204.9 C988,87.2,879.8,29.4,758.5-6l1-4.1c121.8,35.5,230.4,93.8,305.9,164c75.7,70.6,108.9,144.9,93.4,209.2 C1146.5,413.8,1105.2,453.6,1039.2,478.2z"></path><path class="st0" d="M444.9,506.1c-142.2-69.4-251.8-159.6-308.6-253.8l3.1-2.3c56.4,93.6,165.4,183,306.9,252.3L444.9,506.1z"></path><path class="st0" d="M950.9,641.9c-15.4,0-30.9-0.3-46.7-1.1l0.2-4.4c118.3,5.6,222.6-10,301.9-45.1l1.5,4 C1138.5,626.1,1050.5,641.9,950.9,641.9z"></path><path class="st0" d="M862.4-36.5c-23.5-8.5-47.6-16.3-71.8-23.3c-139.1-40.6-275.8-54.9-395.5-41.6l-0.4-4.2 c120-13.4,257.3,1.1,396.9,41.7c24.3,7.1,48.5,14.9,72.1,23.4L862.4-36.5z"></path><path class="st0" d="M224.8,287.4c-58-62.9-82.4-128.4-69-184.7c17.3-72.1,94.4-122,211.4-136.8l0.4,4.2 C252.3-15.3,176.4,33.5,159.6,103.8c-13.2,54.7,11,118.9,67.9,180.6L224.8,287.4z"></path><path class="st0" d="M784.3,510.6c-72.4,0-151-11.8-229.2-34.7C458.6,447.8,370,405.2,299,353l2.1-3.4c70.6,52,158.8,94.3,255,122.3 c86.9,25.3,174.5,37.1,253.2,34l0.1,4.2C801.3,510.4,792.8,510.6,784.3,510.6z"></path><path class="st0" d="M950.4,484.4l-1.2-4c64.7-24.1,105.2-62.9,117.1-112.2c15.1-62.8-17.6-135.5-92.3-204.9 C899.1,93.4,791,35.6,669.6,0.2l1-4.1c121.8,35.5,230.4,93.8,305.9,164c75.7,70.6,108.9,144.9,93.4,209.2 C1057.6,420.1,1016.3,459.9,950.4,484.4z"></path><path class="st0" d="M356,512.3C213.8,442.9,104.2,352.8,47.4,258.6l3.1-2.3c56.4,93.6,165.4,183,306.9,252.3L356,512.3z"></path><path class="st0" d="M858,648.5c-15.4,0-30.9-0.3-46.7-1.1l0.2-4.4c118.3,5.6,222.6-10,301.9-45.1l1.5,4 C1045.6,632.6,957.6,648.5,858,648.5z"></path><path class="st0" d="M773.5-30.3c-23.6-8.5-47.7-16.3-71.9-23.4c-139.1-40.6-275.8-54.9-395.5-41.6l-0.4-4.2 c120-13.4,257.3,1.1,396.9,41.7c24.3,7.1,48.5,14.9,72.1,23.4L773.5-30.3z"></path></svg>